<mxfile host="app.diagrams.net" modified="2021-10-08T15:12:54.007Z" agent="5.0 (Windows NT 10.0; Win64; x64) AppleWebKit/537.36 (KHTML, like Gecko) Chrome/94.0.4606.61 Safari/537.36" etag="F-7pLOXqfzTOtzM_53OQ" version="15.4.3" type="github">
  <diagram id="zkKEIK_zglyDEko2h_Qn" name="Page-1">
    <mxGraphModel dx="782" dy="706" grid="1" gridSize="10" guides="1" tooltips="1" connect="1" arrows="1" fold="1" page="1" pageScale="1" pageWidth="827" pageHeight="1169" math="0" shadow="0">
      <root>
        <mxCell id="0" />
        <mxCell id="1" parent="0" />
      </root>
    </mxGraphModel>
  </diagram>
</mxfile>
